<?xml version="1.0" encoding="UTF-8"?>
<!DOCTYPE svg PUBLIC "-//W3C//DTD SVG 1.1//EN" "http://www.w3.org/Graphics/SVG/1.1/DTD/svg11.dtd">
<!-- Creator: CorelDRAW X6 -->
<svg xmlns="http://www.w3.org/2000/svg" xml:space="preserve" width="100%" height="100%" version="1.1" style="shape-rendering:geometricPrecision; text-rendering:geometricPrecision; image-rendering:optimizeQuality; fill-rule:evenodd; clip-rule:evenodd"
viewBox="0 0 500 500"
 xmlns:xlink="http://www.w3.org/1999/xlink">
 <defs>
  <style type="text/css">
   <![CDATA[
    .str1 {stroke:#303030;stroke-width:2.5}
    .str2 {stroke:#303030;stroke-width:5}
    .fil1 {fill:#303030}
    .fil11 {fill:#77BB00}
    .fil7 {fill:#ED2F00}
    .fil10 {fill:#FFBB00}
    .fil2 {fill:url(#id0)}
    .fil3 {fill:url(#id1)}
    .fil9 {fill:url(#id2)}
    .fil6 {fill:url(#id3)}
    .fil8 {fill:url(#id4)}
    .fil5 {fill:url(#id5)}
    .fil4 {fill:url(#id6)}
   ]]>
  </style>
  <linearGradient id="id0" gradientUnits="objectBoundingBox" x1="50.0001%" y1="0%" x2="50.0001%" y2="99.9989%">
   <stop offset="0" style="stop-color:#303030"/>
   <stop offset="0.109804" style="stop-color:#7D7D7D"/>
   <stop offset="0.478431" style="stop-color:#484848"/>
   <stop offset="1" style="stop-color:#383838"/>
  </linearGradient>
  <linearGradient id="id1" gradientUnits="userSpaceOnUse" xlink:href="#id0" x1="250.004" y1="60.613" x2="250.004" y2="154.113">
  </linearGradient>
  <linearGradient id="id2" gradientUnits="userSpaceOnUse" x1="250.006" y1="320.004" x2="250.006" y2="457.504">
   <stop offset="0" style="stop-color:#303030"/>
   <stop offset="0.501961" style="stop-color:#585858"/>
   <stop offset="1" style="stop-color:#303030"/>
  </linearGradient>
  <linearGradient id="id3" gradientUnits="userSpaceOnUse" xlink:href="#id2" x1="250.006" y1="45.004" x2="250.006" y2="182.504">
  </linearGradient>
  <linearGradient id="id4" gradientUnits="userSpaceOnUse" xlink:href="#id2" x1="251.254" y1="182.505" x2="251.254" y2="320.004">
  </linearGradient>
  <linearGradient id="id5" gradientUnits="userSpaceOnUse" x1="250.005" y1="38.806" x2="250.005" y2="461.204">
   <stop offset="0" style="stop-color:#404040"/>
   <stop offset="1" style="stop-color:#686868"/>
  </linearGradient>
  <linearGradient id="id6" gradientUnits="userSpaceOnUse" x1="250.005" y1="466.204" x2="250.005" y2="33.806">
   <stop offset="0" style="stop-color:#303030"/>
   <stop offset="1" style="stop-color:#707070"/>
  </linearGradient>
 </defs>
 <g id="Layer_x0020_1">
  <metadata id="CorelCorpID_0Corel-Layer"/>
  <path class="fil1" d="M350 61l100 0 0 10c0,55 -45,100 -100,100l0 0 0 -110zm0 139l100 0 0 10c0,55 -45,100 -100,100l0 0 0 -110zm0 150l100 0 0 10c0,55 -45,100 -100,100l0 0 0 -110z"/>
  <path class="fil1" d="M150 61l-100 0 0 10c0,55 45,100 100,100l0 0 0 -110zm0 139l-100 0 0 10c0,55 45,100 100,100l0 0 0 -110zm0 150l-100 0 0 10c0,55 45,100 100,100l0 0 0 -110z"/>
  <path class="fil2" d="M354 200l85 0 0 9c0,46 -38,85 -85,85l0 0 0 -94zm-208 0l-85 0 0 9c0,46 38,85 85,85l0 0 0 -94z"/>
  <path class="fil2" d="M354 350l85 0 0 9c0,46 -38,85 -85,85l0 0 0 -94zm-208 0l-85 0 0 9c0,46 38,85 85,85l0 0 0 -94z"/>
  <path class="fil3" d="M146 61l-85 0 0 8c0,47 38,85 85,85l0 0 0 -93zm208 0l85 0 0 8c0,47 -38,85 -85,85l0 0 0 -93z"/>
  <rect class="fil4" x="145" y="20" width="209" height="460" rx="20" ry="20"/>
  <rect class="fil5" x="155" y="30" width="190" height="440" rx="15" ry="16"/>
  <path class="fil6 str1" d="M188 45l127 0c6,0 10,5 10,10l0 128 -147 0 0 -128c0,-5 4,-10 10,-10z"/>
  <circle class="fil7 str2" cx="250" cy="116" r="55"/>
  <rect class="fil8 str1" x="178" y="183" width="148" height="137"/>
  <path class="fil9 str1" d="M178 320l147 0 0 128c0,5 -4,10 -10,10l-127 0c-6,0 -10,-5 -10,-10l0 -128z"/>
  <circle class="fil10 str2" cx="250" cy="250" r="55"/>
  <circle class="fil11 str2" cx="250" cy="385" r="55"/>
 </g>
</svg>
